<?xml version="1.0" standalone="no"?>
<!DOCTYPE svg PUBLIC "-//W3C//DTD SVG 20010904//EN"
 "http://www.w3.org/TR/2001/REC-SVG-20010904/DTD/svg10.dtd">
<svg version="1.0" xmlns="http://www.w3.org/2000/svg"
 viewBox="0 0 512.000000 512.000000"
 preserveAspectRatio="xMidYMid meet">

<g transform="translate(0.000000,512.000000) scale(0.100000,-0.100000)">
<path d="M2261 5104 c-151 -32 -289 -127 -371 -252 l-51 -79 -85 -6 c-103 -7
-227 -48 -306 -101 -86 -56 -181 -163 -222 -248 -36 -75 -66 -180 -66 -233 l0
-31 -102 -1 c-82 0 -120 -6 -185 -27 -306 -99 -495 -419 -429 -726 8 -36 17
-72 21 -82 5 -12 -8 -26 -52 -56 -269 -185 -410 -534 -347 -862 42 -221 173
-423 357 -549 40 -27 48 -37 42 -55 -19 -65 -35 -157 -35 -203 0 -188 122
-443 213 -443 38 0 50 7 66 37 18 34 13 52 -26 106 -169 236 -118 542 117 700
25 16 51 37 58 45 18 24 15 76 -7 96 -48 44 -133 4 -244 -114 l-65 -68 -49 33
c-65 43 -149 137 -196 216 -90 153 -120 354 -78 519 47 187 141 323 294 429
97 67 257 121 355 121 51 0 100 18 112 40 17 31 11 65 -15 90 -23 22 -30 23
-117 17 -51 -3 -126 -15 -167 -27 -40 -11 -75 -19 -77 -17 -3 2 -10 40 -16 85
-33 227 102 445 323 521 89 30 147 34 250 16 90 -15 94 -15 119 3 23 18 25 26
31 133 4 82 12 130 28 170 58 152 178 260 333 300 171 45 339 0 464 -125 86
-86 144 -212 144 -313 0 -44 17 -79 47 -92 36 -16 51 -14 78 14 30 29 33 85
10 185 -45 191 -165 346 -334 427 -44 21 -80 44 -80 52 -2 25 135 150 194 177
249 114 545 -17 626 -277 10 -33 19 -78 19 -100 l0 -39 -82 0 c-52 -1 -89 -5
-100 -14 -39 -30 -40 -92 0 -122 11 -9 47 -13 100 -14 l82 0 0 -250 0 -250
-320 0 c-295 0 -323 2 -373 20 -88 33 -140 103 -157 208 -11 64 -35 92 -79 92
-40 0 -71 -38 -71 -86 0 -131 92 -275 217 -337 82 -42 135 -47 468 -47 l315 0
0 -630 0 -630 -610 0 c-431 0 -616 -3 -634 -11 -51 -23 -55 -103 -7 -128 13
-8 221 -11 635 -11 l616 0 0 -515 0 -515 -118 0 c-187 0 -266 -21 -358 -96
-110 -89 -171 -278 -109 -339 27 -28 42 -30 78 -14 28 13 47 48 47 88 0 41 47
128 86 157 53 41 114 54 251 54 l123 0 0 -275 0 -275 -72 0 c-81 0 -117 -13
-134 -49 -15 -29 -1 -77 26 -91 10 -6 46 -10 79 -10 34 0 61 -4 61 -8 0 -19
-65 -104 -109 -144 -147 -132 -363 -155 -530 -55 -50 30 -161 138 -161 157 0
5 25 20 55 34 65 29 132 74 174 117 37 36 40 75 11 107 -32 34 -75 29 -134
-17 -171 -130 -362 -147 -548 -49 -136 72 -248 251 -248 397 l0 46 65 34 c86
44 125 81 125 118 0 79 -66 96 -154 38 -81 -54 -149 -77 -258 -84 -112 -9
-138 -23 -138 -78 0 -57 26 -73 124 -73 l83 0 7 -54 c28 -239 205 -454 436
-527 36 -12 104 -23 152 -26 l87 -6 46 -72 c133 -206 387 -311 630 -260 117
25 208 76 300 169 131 133 175 248 175 464 l0 122 207 0 206 0 99 -98 99 -97
-17 -40 c-9 -22 -17 -65 -16 -95 1 -229 290 -337 441 -165 46 53 61 94 61 167
-1 168 -143 279 -315 245 l-40 -8 -113 107 c-143 135 -140 134 -409 134 l-203
0 0 200 0 200 329 0 329 0 6 -23 c9 -39 78 -109 130 -133 149 -70 325 21 353
182 33 186 -139 343 -319 290 -65 -19 -128 -70 -153 -125 l-18 -41 -329 0
-328 0 0 250 0 250 394 0 394 0 6 -22 c9 -36 63 -96 114 -126 39 -22 59 -27
117 -27 58 0 79 5 123 29 122 68 168 210 106 334 -93 186 -359 186 -455 -1
l-19 -37 -390 0 -390 0 2 273 3 272 91 3 91 3 14 -33 c60 -146 260 -195 391
-95 43 33 86 110 94 169 9 62 -17 144 -60 194 -66 77 -197 109 -288 71 -48
-20 -112 -79 -132 -122 l-17 -35 -94 0 -95 0 0 215 0 215 416 0 416 0 92 -89
c51 -50 105 -93 120 -97 41 -10 80 23 84 70 3 35 -2 43 -84 127 -53 53 -108
99 -138 114 l-50 25 -428 0 -428 0 0 155 0 155 328 0 c307 0 330 2 372 21 30
13 95 70 195 169 l150 150 66 -6 c85 -8 154 13 206 65 58 56 78 104 78 186 -1
83 -23 133 -83 187 -93 84 -241 84 -335 -1 -81 -73 -107 -179 -67 -283 l20
-53 -140 -140 -140 -140 -325 -3 -325 -3 2 248 3 248 86 3 86 3 18 -41 c40
-89 140 -146 242 -138 141 10 236 113 237 254 0 185 -206 306 -375 219 -38
-20 -94 -79 -109 -115 l-12 -30 -89 0 -89 0 0 43 c0 63 -26 158 -62 234 -47
98 -168 218 -268 267 -129 62 -264 80 -399 50z m1183 -574 c21 0 63 -48 69
-78 7 -35 -14 -85 -44 -106 -88 -61 -205 55 -143 143 19 26 72 53 92 46 8 -3
19 -5 26 -5z m731 -144 c70 -30 83 -120 24 -170 -45 -38 -92 -35 -135 8 -54
54 -42 124 26 158 42 22 42 22 85 4z m-688 -1563 c27 -18 46 -72 37 -107 -16
-64 -111 -98 -160 -58 -109 88 5 240 123 165z m566 -682 c69 -26 89 -104 42
-159 -32 -39 -72 -48 -119 -28 -75 31 -82 134 -12 177 35 21 53 23 89 10z
m-127 -651 c6 0 23 -12 38 -26 60 -61 12 -174 -74 -174 -30 0 -77 27 -90 51
-16 28 -16 75 0 104 16 29 68 57 95 50 11 -3 25 -5 31 -5z m-33 -978 c21 -21
27 -35 27 -70 0 -117 -169 -142 -198 -29 -11 44 -4 72 25 101 42 42 99 41 146
-2z"/>
<path d="M1717 4466 c-43 -16 -104 -56 -135 -89 -33 -35 -70 -118 -77 -172 -9
-65 14 -99 68 -99 45 0 65 17 73 63 10 53 40 106 74 131 16 11 58 26 92 31 74
12 101 34 100 79 -1 53 -26 70 -96 70 -34 -1 -78 -7 -99 -14z"/>
<path d="M4523 3799 c-93 -17 -168 -80 -198 -168 -73 -214 153 -406 356 -303
213 108 168 428 -67 469 -27 5 -68 6 -91 2z m110 -173 c71 -66 29 -176 -68
-176 -98 0 -139 120 -61 182 32 27 97 23 129 -6z"/>
<path d="M990 3780 c-26 -26 -26 -81 0 -105 12 -11 47 -22 82 -27 111 -15 206
-84 250 -182 32 -73 32 -182 -2 -250 -52 -102 -131 -158 -253 -177 -74 -12
-97 -30 -97 -76 0 -50 29 -73 93 -73 104 0 218 52 303 137 245 245 127 670
-211 758 -83 21 -140 20 -165 -5z"/>
<path d="M1940 3332 c-16 -13 -26 -38 -36 -96 -7 -43 -24 -101 -37 -129 -52
-113 -178 -200 -314 -217 -76 -10 -106 -32 -106 -79 0 -17 8 -40 18 -51 37
-41 192 -19 309 43 73 39 181 144 219 214 32 59 67 188 67 245 0 71 -69 111
-120 70z"/>
<path d="M2311 3301 c-26 -26 -27 -75 -2 -100 11 -11 37 -23 58 -26 155 -24
226 -182 131 -291 -38 -43 -54 -52 -120 -64 -28 -6 -60 -18 -70 -27 -25 -23
-23 -78 3 -104 19 -19 30 -21 83 -17 112 9 214 82 265 188 37 79 37 191 -1
272 -50 107 -152 179 -264 186 -53 4 -65 1 -83 -17z"/>
<path d="M4290 2900 c-12 -12 -20 -33 -20 -52 0 -27 13 -46 81 -114 l81 -82
-12 -38 c-41 -123 18 -262 135 -315 56 -26 156 -25 211 2 49 23 110 86 130
135 21 51 18 150 -7 201 -26 53 -99 119 -148 133 -49 13 -127 13 -168 -2 -33
-12 -33 -12 -117 70 -91 90 -126 102 -166 62z m441 -299 c23 -23 29 -38 29
-71 0 -91 -102 -133 -171 -72 -70 62 -24 172 72 172 31 0 47 -7 70 -29z"/>
<path d="M613 2755 c-28 -20 -36 -58 -23 -124 22 -115 82 -207 175 -267 83
-52 139 -64 311 -64 l153 0 20 26 c26 33 27 65 2 95 -18 23 -26 24 -183 29
-162 5 -165 6 -214 35 -65 41 -101 95 -119 180 -20 96 -65 130 -122 90z"/>
<path d="M1149 1875 c-131 -48 -219 -135 -254 -252 -34 -112 -11 -183 58 -183
45 0 63 22 76 92 12 68 29 103 67 142 62 62 55 61 460 66 348 5 373 6 393 24
27 25 28 79 1 106 -19 19 -33 20 -392 19 -283 0 -382 -4 -409 -14z"/>
<path d="M2150 1870 c-27 -27 -26 -81 1 -106 19 -17 38 -19 205 -19 175 0 184
1 205 22 29 29 28 81 -2 105 -18 16 -45 18 -205 18 -171 0 -185 -1 -204 -20z"/>
<path d="M4773 1879 c-94 -17 -168 -80 -198 -168 -55 -162 67 -331 239 -331
145 0 255 109 256 250 0 157 -143 277 -297 249z m120 -180 c58 -71 12 -169
-78 -169 -122 0 -139 176 -20 202 31 7 78 -10 98 -33z"/>
<path d="M1545 1535 c-54 -53 -19 -116 70 -128 122 -17 199 -103 199 -223 -1
-113 -71 -192 -192 -217 -68 -14 -102 -39 -102 -74 0 -65 43 -89 134 -72 162
29 281 149 307 309 31 196 -102 382 -300 420 -77 14 -89 13 -116 -15z"/>
<path d="M4385 1076 c-95 -45 -147 -125 -147 -226 0 -100 51 -183 139 -226
171 -84 365 36 364 226 0 69 -17 113 -62 165 -73 82 -195 108 -294 61z m176
-155 c41 -42 41 -105 0 -145 -97 -93 -237 50 -142 145 41 41 101 41 142 0z"/>
</g>
</svg>
